<svg xmlns="http://www.w3.org/2000/svg" version="1.0" width="128.000000pt" height="128.000000pt" viewBox="0 0 128.000000 128.000000" preserveAspectRatio="xMidYMid meet">

<g transform="translate(0.000000,128.000000) scale(0.100000,-0.100000)" fill="#ffffff" stroke="none">
<path d="M480 645 l0 -424 93 -30 92 -29 5 368 c5 379 8 401 44 387 28 -11 36 -55 36 -208 l0 -149 26 -10 c63 -24 132 -2 161 53 28 50 25 198 -4 254 -44 82 -124 125 -345 183 l-108 28 0 -423z" fill="#ffffff"/>
<path d="M260 491 c-168 -62 -206 -82 -216 -113 -20 -63 175 -128 336 -111 l60 6 0 49 c0 36 -4 49 -12 46 -74 -27 -124 -39 -160 -36 -76 5 -55 29 65 72 l107 39 0 54 c0 36 -4 53 -12 52 -7 -1 -83 -27 -168 -58z" fill="#ffffff"/>
<path d="M825 500 c-111 -21 -110 -20 -113 -83 -2 -31 0 -57 3 -57 4 0 59 18 124 40 115 39 153 46 185 34 40 -15 8 -35 -149 -90 l-165 -59 0 -52 c0 -29 4 -53 10 -53 19 0 428 152 459 171 39 23 43 69 9 94 -64 45 -259 74 -363 55z" fill="#ffffff"/>
</g>
</svg>