<svg xmlns="http://www.w3.org/2000/svg" version="1.0" width="512.000000pt" height="512.000000pt" viewBox="0 0 512.000000 512.000000" preserveAspectRatio="xMidYMid meet">

<g transform="translate(0.000000,512.000000) scale(0.100000,-0.100000)" fill="#ffffff" stroke="none">
<path d="M985 5109 c-33 -5 -100 -20 -149 -34 -435 -125 -763 -502 -825 -949 -8 -52 -11 -562 -11 -1569 0 -1637 -2 -1584 60 -1769 59 -175 148 -318 279 -449 134 -133 275 -221 451 -279 168 -57 219 -60 953 -60 l667 0 0 2560 0 2560 -682 -1 c-376 -1 -710 -5 -743 -10z m1125 -2550 l0 -2260 -552 3 -553 4 -88 27 c-292 90 -492 291 -584 584 l-28 88 0 1555 0 1555 28 88 c102 326 356 552 684 607 26 4 283 8 571 9 l522 1 0 -2261z" fill="#ffffff"/>
<path d="M1072 4205 c-221 -48 -410 -239 -457 -461 -65 -305 110 -608 406 -705 105 -34 263 -34 367 0 135 44 242 126 322 247 70 106 95 194 95 329 0 135 -25 222 -95 329 -138 212 -390 315 -638 261z m261 -314 c59 -28 119 -89 149 -149 18 -37 23 -64 23 -127 0 -94 -23 -150 -86 -214 -64 -63 -120 -86 -214 -86 -63 0 -90 5 -127 23 -132 65 -202 211 -168 350 22 94 110 188 203 218 59 19 164 12 220 -15z" fill="#ffffff"/>
<path d="M2710 2560 l0 -2560 668 0 c733 0 784 3 952 60 177 59 319 147 451 279 178 179 287 395 324 638 22 146 22 3020 0 3166 -64 425 -362 779 -771 916 -174 58 -212 61 -951 61 l-673 0 0 -2560z m1493 2227 c292 -90 492 -291 584 -584 l28 -88 0 -1555 0 -1555 -28 -88 c-92 -293 -292 -494 -584 -584 l-88 -27 -552 -4 -553 -3 0 2261 0 2261 553 -3 552 -4 88 -27z" fill="#ffffff"/>
<path d="M3782 2995 c-221 -48 -410 -239 -457 -461 -65 -305 110 -608 406 -705 105 -34 263 -34 367 0 80 26 175 82 236 139 58 56 130 171 157 253 34 105 34 263 0 368 -97 297 -404 472 -709 406z m261 -314 c59 -28 119 -89 149 -149 18 -37 23 -64 23 -127 0 -94 -23 -150 -86 -214 -64 -63 -120 -86 -214 -86 -63 0 -90 5 -127 23 -132 65 -202 211 -168 350 22 94 110 188 203 218 59 19 164 12 220 -15z" fill="#ffffff"/>
</g>
</svg>